<svg height="463pt" viewBox="0 -12 463.952 463" width="463pt" xmlns="http://www.w3.org/2000/svg"><g fill="#e6e9ed"><path d="m431.9375 176.464844-.242188.960937c13.921876 3.441407 24.242188 16.078125 24.242188 31.039063 0 17.679687-14.320312 32-32 32h-368c-26.5625-.078125-47.921875-21.519532-47.921875-48 0-26.488282 21.359375-47.917969 47.921875-48h376zm0 0"/><path d="m431.9375 240.464844v32l-.242188.960937c13.921876 3.441407 24.242188 16.078125 24.242188 31.039063 0 17.679687-14.320312 32-32 32h-368c-26.5625-.078125-47.921875-21.519532-47.921875-48 0-26.488282 21.359375-47.917969 47.921875-48zm0 0"/><path d="m431.9375 336.464844v32l-.242188.960937c13.921876 3.441407 24.242188 16.078125 24.242188 31.039063 0 17.679687-14.320312 32-32 32h-368c-26.5625-.078125-47.921875-21.519532-47.921875-48 0-26.488282 21.359375-47.917969 47.921875-48zm0 0"/></g><path d="m423.953125 248.464844c-4.425781 0-8-3.574219-8-8 0-4.421875 3.574219-8 8-8 13.230469 0 24-10.765625 24-24 0-13.230469-10.769531-24-24-24-4.425781 0-8-3.574219-8-8 0-4.421875 3.574219-8 8-8 22.054687 0 40 17.945312 40 40 0 22.054687-17.945313 40-40 40zm0 0"/><path d="m55.921875 216.464844c-13.234375 0-24-10.765625-24-24 0-13.230469 10.765625-24 24-24 4.421875 0 8 3.578125 8 8 0 4.425781-3.578125 8-8 8-4.417969 0-8 3.585937-8 8 0 4.417968 3.582031 8 8 8 4.421875 0 8 3.578125 8 8 0 4.425781-3.578125 8-8 8zm0 0"/><path d="m56 248.449219c-30.871094 0-56-25.121094-56-55.984375 0-30.871094 25.128906-56 56-56 4.425781 0 8 3.578125 8 8 0 4.425781-3.574219 8-8 8-22.054688 0-40 17.945312-40 40 0 22.046875 17.945312 39.984375 40 39.984375 4.425781 0 8 3.574219 8 8s-3.574219 8-8 8zm0 0"/><path d="m423.953125 216.464844h-368.03125c-4.425781 0-8-3.574219-8-8 0-4.421875 3.574219-8 8-8h368.03125c4.421875 0 8 3.578125 8 8 0 4.425781-3.578125 8-8 8zm0 0"/><path d="m423.953125 248.464844h-367.96875c-4.425781 0-8-3.574219-8-8 0-4.421875 3.574219-8 8-8h367.96875c4.421875 0 8 3.578125 8 8 0 4.425781-3.578125 8-8 8zm0 0"/><path d="m423.953125 184.464844h-368.03125c-4.425781 0-8-3.574219-8-8 0-4.421875 3.574219-8 8-8h368.03125c4.421875 0 8 3.578125 8 8 0 4.425781-3.578125 8-8 8zm0 0"/><path d="m431.960938 152.464844h-376.039063c-4.425781 0-8-3.574219-8-8 0-4.421875 3.574219-8 8-8h376.039063c4.421874 0 8 3.578125 8 8 0 4.425781-3.578126 8-8 8zm0 0"/><path d="m431.960938 184.464844c-4.425782 0-8-3.574219-8-8v-32c0-4.421875 3.574218-8 8-8 4.421874 0 8 3.578125 8 8v32c0 4.425781-3.578126 8-8 8zm0 0"/><path d="m423.953125 344.464844c-4.425781 0-8-3.574219-8-8 0-4.421875 3.574219-8 8-8 13.230469 0 24-10.765625 24-24 0-13.230469-10.769531-24-24-24-4.425781 0-8-3.574219-8-8 0-4.421875 3.574219-8 8-8 22.054687 0 40 17.945312 40 40 0 22.054687-17.945313 40-40 40zm0 0"/><path d="m55.921875 312.464844c-13.234375 0-24-10.765625-24-24 0-13.230469 10.765625-24 24-24 4.421875 0 8 3.578125 8 8 0 4.425781-3.578125 8-8 8-4.417969 0-8 3.585937-8 8 0 4.417968 3.582031 8 8 8 4.421875 0 8 3.578125 8 8 0 4.425781-3.578125 8-8 8zm0 0"/><path d="m56 344.449219c-30.871094 0-56-25.121094-56-55.984375 0-30.871094 25.128906-56 56-56 4.425781 0 8 3.578125 8 8 0 4.425781-3.574219 8-8 8-22.054688 0-40 17.945312-40 40 0 22.046875 17.945312 39.984375 40 39.984375 4.425781 0 8 3.574219 8 8s-3.574219 8-8 8zm0 0"/><path d="m423.953125 312.464844h-368.03125c-4.425781 0-8-3.574219-8-8 0-4.421875 3.574219-8 8-8h368.03125c4.421875 0 8 3.578125 8 8 0 4.425781-3.578125 8-8 8zm0 0"/><path d="m423.953125 344.464844h-367.96875c-4.425781 0-8-3.574219-8-8 0-4.421875 3.574219-8 8-8h367.96875c4.421875 0 8 3.578125 8 8 0 4.425781-3.578125 8-8 8zm0 0"/><path d="m423.953125 280.464844h-368.03125c-4.425781 0-8-3.574219-8-8 0-4.421875 3.574219-8 8-8h368.03125c4.421875 0 8 3.578125 8 8 0 4.425781-3.578125 8-8 8zm0 0"/><path d="m431.960938 248.464844h-376.039063c-4.425781 0-8-3.574219-8-8 0-4.421875 3.574219-8 8-8h376.039063c4.421874 0 8 3.578125 8 8 0 4.425781-3.578126 8-8 8zm0 0"/><path d="m431.960938 280.464844c-4.425782 0-8-3.574219-8-8v-32c0-4.421875 3.574218-8 8-8 4.421874 0 8 3.578125 8 8v32c0 4.425781-3.578126 8-8 8zm0 0"/><path d="m423.953125 440.464844c-4.425781 0-8-3.574219-8-8 0-4.421875 3.574219-8 8-8 13.230469 0 24-10.765625 24-24 0-13.230469-10.769531-24-24-24-4.425781 0-8-3.574219-8-8 0-4.421875 3.574219-8 8-8 22.054687 0 40 17.945312 40 40 0 22.054687-17.945313 40-40 40zm0 0"/><path d="m55.921875 408.464844c-13.234375 0-24-10.765625-24-24 0-13.230469 10.765625-24 24-24 4.421875 0 8 3.578125 8 8 0 4.425781-3.578125 8-8 8-4.417969 0-8 3.585937-8 8 0 4.417968 3.582031 8 8 8 4.421875 0 8 3.578125 8 8 0 4.425781-3.578125 8-8 8zm0 0"/><path d="m56 440.449219c-30.871094 0-56-25.121094-56-55.984375 0-30.871094 25.128906-56 56-56 4.425781 0 8 3.578125 8 8 0 4.425781-3.574219 8-8 8-22.054688 0-40 17.945312-40 40 0 22.046875 17.945312 39.984375 40 39.984375 4.425781 0 8 3.574219 8 8s-3.574219 8-8 8zm0 0"/><path d="m423.953125 408.464844h-368.03125c-4.425781 0-8-3.574219-8-8 0-4.421875 3.574219-8 8-8h368.03125c4.421875 0 8 3.578125 8 8 0 4.425781-3.578125 8-8 8zm0 0"/><path d="m423.953125 440.464844h-367.96875c-4.425781 0-8-3.574219-8-8 0-4.421875 3.574219-8 8-8h367.96875c4.421875 0 8 3.578125 8 8 0 4.425781-3.578125 8-8 8zm0 0"/><path d="m423.953125 376.464844h-368.03125c-4.425781 0-8-3.574219-8-8 0-4.421875 3.574219-8 8-8h368.03125c4.421875 0 8 3.578125 8 8 0 4.425781-3.578125 8-8 8zm0 0"/><path d="m431.960938 344.464844h-376.039063c-4.425781 0-8-3.574219-8-8 0-4.421875 3.574219-8 8-8h376.039063c4.421874 0 8 3.578125 8 8 0 4.425781-3.578126 8-8 8zm0 0"/><path d="m431.960938 376.464844c-4.425782 0-8-3.574219-8-8v-32c0-4.421875 3.574218-8 8-8 4.421874 0 8 3.578125 8 8v32c0 4.425781-3.578126 8-8 8zm0 0"/><path d="m71.6875 112.554688c-1.808594 0-3.617188-.609376-5.113281-1.847657-3.398438-2.832031-3.855469-7.875-1.03125-11.265625.449219-.566406 12.121093-15.695312-.839844-39.046875-18.457031-33.226562.050781-56.089843.839844-57.042969 2.832031-3.3906245 7.871093-3.847656 11.265625-1.03125 3.375 2.816407 3.847656 7.816407 1.078125 11.210938-.589844.75-12.109375 15.839844.800781 39.09375 18.457031 33.230469-.046875 56.097656-.839844 57.046875-1.589844 1.898437-3.863281 2.882813-6.160156 2.882813zm0 0"/><path d="m151.710938 112.554688c-1.808594 0-3.613282-.609376-5.109376-1.847657-3.402343-2.832031-3.859374-7.875-1.035156-11.265625.449219-.566406 12.121094-15.695312-.839844-39.046875-18.453124-33.226562.050782-56.089843.839844-57.042969 2.832032-3.3906245 7.875-3.847656 11.265625-1.03125 3.375 2.816407 3.847657 7.816407 1.078125 11.210938-.589844.75-12.109375 15.839844.800782 39.09375 18.457031 33.230469-.046876 56.097656-.839844 57.046875-1.589844 1.898437-3.863282 2.882813-6.160156 2.882813zm0 0"/><path d="m231.734375 112.554688c-1.804687 0-3.613281-.609376-5.109375-1.847657-3.402344-2.832031-3.855469-7.875-1.03125-11.265625.445312-.566406 12.117188-15.695312-.839844-39.046875-18.457031-33.226562.046875-56.089843.839844-57.042969 2.832031-3.3906245 7.871094-3.847656 11.261719-1.03125 3.375 2.816407 3.847656 7.816407 1.082031 11.210938-.59375.75-12.113281 15.839844.796875 39.09375 18.457031 33.230469-.046875 56.097656-.839844 57.046875-1.589843 1.898437-3.863281 2.882813-6.160156 2.882813zm0 0"/><path d="m311.910156 112.554688c-1.804687 0-3.613281-.609376-5.109375-1.847657-3.402343-2.832031-3.855469-7.875-1.03125-11.265625.445313-.566406 12.117188-15.695312-.839843-39.046875-18.457032-33.226562.046874-56.089843.839843-57.042969 2.832031-3.3906245 7.871094-3.847656 11.261719-1.03125 3.375 2.816407 3.847656 7.816407 1.082031 11.210938-.59375.75-12.113281 15.839844.796875 39.09375 18.457032 33.230469-.046875 56.097656-.839844 57.046875-1.589843 1.898437-3.863281 2.882813-6.160156 2.882813zm0 0"/><path d="m391.9375 112.554688c-1.808594 0-3.617188-.609376-5.113281-1.847657-3.398438-2.832031-3.855469-7.875-1.03125-11.265625.445312-.566406 12.117187-15.695312-.839844-39.046875-18.457031-33.226562.046875-56.089843.839844-57.042969 2.832031-3.3906245 7.871093-3.847656 11.261719-1.03125 3.378906 2.816407 3.847656 7.816407 1.082031 11.210938-.59375.75-12.113281 15.839844.800781 39.09375 18.453125 33.230469-.050781 56.097656-.839844 57.046875-1.59375 1.898437-3.867187 2.882813-6.160156 2.882813zm0 0"/></svg>