<svg id="_x33_0" enable-background="new 0 0 64 64" height="512" viewBox="0 0 64 64" width="512" xmlns="http://www.w3.org/2000/svg"><path d="m60 37h-1.171c-.801 0-1.555.312-2.122.879l-1.14 1.14-3.818-6.108 2.533-3.541c.49-.687.749-1.496.749-2.34 0-2.222-1.808-4.03-4.03-4.03h-10.137c-2.041 0-4.013-.349-5.864-.982v-3.018h20v-2c0-2.206-1.794-4-4-4h-20c-1.103 0-2 .897-2 2v3.546c-2.085-1.83-3.766-4.153-4.849-6.86l-2.468-6.17c-.498-1.245-1.568-2.124-2.838-2.408-.389-1.218-1.517-2.108-2.861-2.108h-.837c-1.013 0-1.979.379-2.722 1.068l-7.812 7.253.008.009c-.99.911-1.621 2.206-1.621 3.654v4.136c-1.151.334-2 1.386-2 2.643 0 .245.033.489.097.728l1.517 5.561c1.923 7.052 7.111 12.773 13.916 15.4.939 2.088 3.035 3.548 5.47 3.548h4v2c-1.103 0-2 .897-2 2v.259c-3.21.349-10 1.473-10 4.741v4c0 3.436 7.775 5 15 5s15-1.564 15-5v-4c0-3.268-6.79-4.392-10-4.741v-.259c0-1.103-.897-2-2-2v-2h6c1.474 0 2.75-.81 3.444-2h1.556c1.074 0 2.01-.572 2.54-1.422l.005.004 2.343-3.274 3.227 5.163-3.236 3.236c-.567.566-.879 1.32-.879 2.122v1.171c0 1.654 1.346 3 3 3h1.171c.801 0 1.555-.312 2.122-.879l8.828-8.828c.567-.566.879-1.32.879-2.122v-1.171c0-1.654-1.346-3-3-3zm-9-12c1.12 0 2.03.911 2.03 2.03 0 .425-.13.833-.376 1.177l-7.205 10.071c-.543-.77-1.436-1.278-2.449-1.278h-21v-4h20v-2c0-2.206-1.794-4-4-4h-11.586l4.585-4.585c2.937 1.661 6.313 2.585 9.865 2.585zm-13 4c1.103 0 2 .897 2 2h-22v-2zm-7-14h20c1.103 0 2 .897 2 2h-22zm0 4h2v2.207c-.693-.335-1.358-.719-2-1.139zm-17.214-15.466c.371-.344.855-.534 1.361-.534h.837c.56 0 1.016.456 1.016 1.016v5.156c0 .267-.104.519-.285.7l-5.715 5.586v-4.443c0-1.367-.921-2.512-2.17-2.88zm-5.099 14.186c-.18.171-.42.28-.687.28h-1.387c-.46-.406-1.011-.698-1.613-.858v-4.158c0-1.645 1.339-2.984 2.984-2.984.56 0 1.016.456 1.016 1.016v5.984c0 .268-.109.509-.281.689zm-4.144 7.805-1.516-5.559c-.018-.066-.027-.134-.027-.202 0-.421.343-.764.764-.764h.205c.823 0 1.552.494 1.857 1.257l2.469 6.171c1.55 3.876 4.214 7.089 7.706 9.347v3.225c0 .02.003.039.003.058-5.598-2.587-9.824-7.531-11.461-13.533zm11.457 3.475v4.341c-2.609-1.97-4.619-4.581-5.849-7.656l-2.274-5.685h.123c.774 0 1.473-.302 2.005-.785l.006.006.076-.075c.018-.017.036-.034.053-.052l7.98-7.802c.568-.566.88-1.319.88-2.121v-3.871c.363.22.66.544.826.957l2.468 6.171c1.469 3.671 3.922 6.708 6.981 8.883l-5.689 5.689h-5.586c-1.103 0-2 .897-2 2zm13 32c-8.577 0-13-2.103-13-3v-1.333c2.775 1.588 8.018 2.333 13 2.333s10.225-.745 13-2.333v1.333c0 .897-4.423 3-13 3zm13-7c0 .897-4.423 3-13 3s-13-2.103-13-3c0-.656 2.431-2.112 8-2.731v1.731c0 1.103.897 2 2 2h6c1.103 0 2-.897 2-2v-1.731c5.569.619 8 2.075 8 2.731zm-9.999-1h-6.001v-4h6zm-2.001-6h-2v-2h2zm8-4h-16c-2.206 0-4-1.794-4-4v-6h2v4c0 1.103.897 2 2 2h16c1.103 0 2 .897 2 2s-.897 2-2 2zm5-2h-1c0-.732-.212-1.409-.556-2h1.556c.551 0 1 .449 1 1s-.449 1-1 1zm6.147-4.452 1.343-1.877 3.625 5.8-1.549 1.549zm-.147 13.452v-1h1c.551 0 1 .449 1 1v1h-1c-.551 0-1-.449-1-1zm12-8.829c0 .267-.104.519-.293.708l-7.745 7.745c-.172-1.351-1.235-2.414-2.586-2.586l7.745-7.745c.189-.189.441-.293.708-.293h1.171c.551 0 1 .449 1 1z"/></svg>