<svg id="Layer_37" enable-background="new 0 0 64 64" height="512" viewBox="0 0 64 64" width="512" xmlns="http://www.w3.org/2000/svg"><g><path d="m39 18h2v6h-2z"/><path d="m39 26h2v2h-2z"/><path d="m52.989 19.181c-.111-8.715-1.933-17.037-2.013-17.398l-.174-.783h-3.802v3h-2v-3h-2v3h-2v-3h-2v3h-2v-3h-2v3h-2v-3h-3.802l-.174.783c-.08.36-1.902 8.682-2.013 17.398-1.167.411-2.011 1.513-2.011 2.819v2c0 1.654 1.346 3 3 3h1.386l2.882 22.387c.353 2.758 2.183 5.054 4.732 6.063v2.55c0 1.013.759 1.843 1.736 1.973-.343.61-.988 1.027-1.736 1.027h-12c-1.103 0-2-.897-2-2v-41c0-2.757-2.243-5-5-5s-5 2.243-5 5v5c-1.103 0-2 .897-2 2v2.161c-.643.267-1.131.849-1.239 1.574l-.74 5.977c-.084.567.084 1.143.461 1.58.38.44.931.693 1.518.704v2.004h2v-2h2v2h2v-2.004c.586-.011 1.138-.264 1.518-.704.377-.437.545-1.013.464-1.556l-.746-6.024c-.105-.708-.593-1.285-1.236-1.551v-2.161c0-1.103-.897-2-2-2v-5c0-1.654 1.346-3 3-3s3 1.346 3 3v41c0 2.206 1.794 4 4 4h12c1.858 0 3.411-1.28 3.858-3h.142c1.103 0 2-.897 2-2v-2.55c2.549-1.009 4.379-3.305 4.732-6.063l2.889-22.387h1.379c1.654 0 3-1.346 3-3v-2c0-1.306-.844-2.408-2.011-2.819zm-37.989 5.819v2h-2v-2zm1.96 10-5.957-.019.78-5.981 4.472-.019.75 6.003c-.002.001-.012.016-.045.016zm33.282-16c-1.643-4.215-5.667-7-10.242-7s-8.599 2.785-10.242 7h-.671l.193-2.318c.338-4.059 3.615-6.682 8.348-6.682h4.743c4.733 0 8.01 2.623 8.348 6.682l.194 2.318zm-15.817-3.066c1.548-1.222 3.49-1.934 5.575-1.934s4.027.712 5.575 1.934c-1.022 1.071-2.575 3.315-2.575 7.066v8c0 .551-.449 1-1 1h-4c-.551 0-1-.449-1-1v-8c0-3.751-1.553-5.995-2.575-7.066zm-3.425-12.934v3h18v-3h.186c.276 1.38.846 4.465 1.274 8.235-1.844-2.031-4.681-3.235-8.088-3.235h-4.743c-3.407 0-6.244 1.204-8.088 3.235.428-3.77.998-6.854 1.274-8.235zm-3 22c-.551 0-1-.449-1-1v-2c0-.551.449-1 1-1h1.19c-.121.657-.19 1.325-.19 2v1l.129 1zm13 33h-2v-4l2 .003zm1.87-4.689c-.282-.763-1.01-1.311-1.87-1.311h-2c-.489 0-.962.182-1.339.517-.243.219-.417.495-.529.796-.888-.481-1.623-1.183-2.133-2.039.854-1.525 2.487-2.274 5.001-2.274s4.147.75 5 2.273c-.509.855-1.243 1.557-2.13 2.038zm6.13-29.375-3.232 25.042c-1.308-1.313-3.238-1.978-5.768-1.978-2.529 0-4.46.665-5.768 1.978l-3.232-25.042v-.936c0-.921.139-1.829.414-2.699.349-1.107.898-2.103 1.592-2.964.752.792 1.994 2.567 1.994 5.663v8c0 1.654 1.346 3 3 3h4c1.654 0 3-1.346 3-3v-8c0-3.095 1.239-4.867 1.995-5.662.694.861 1.243 1.857 1.592 2.963.274.87.413 1.778.413 2.699zm4 .064c0 .551-.449 1-1 1h-1.121l.113-.872.008-1.128c0-.675-.069-1.343-.19-2h1.19c.551 0 1 .449 1 1z"/></g></svg>