<svg height="480pt" viewBox="-56 0 480 480.00265" width="480pt" xmlns="http://www.w3.org/2000/svg"><path d="m120 336.003906c-21.679688 0-40 25.648438-40 56 0 30.351563 18.320312 56 40 56s40-25.648437 40-56c0-30.351562-18.320312-56-40-56zm0 96c-11.101562 0-24-17.476562-24-40 0-22.523437 12.898438-40 24-40s24 17.476563 24 40c0 22.523438-12.898438 40-24 40zm0 0"/><path d="m296 304.003906c-.914062 0-1.804688.125-2.710938.167969l-49.851562-78.617187 91.5625-165.683594c.875-1.578125 1.1875-3.402344.890625-5.179688l-8-48c-.542969-3.273437-3.046875-5.871094-6.300781-6.53125-3.25-.660156-6.570313.757813-8.347656 3.5625l-105.242188 165.957032-105.242188-165.957032c-1.773437-2.804687-5.09375-4.222656-8.34375-3.5625-3.253906.660156-5.761718 3.257813-6.304687 6.53125l-8 48c-.296875 1.777344.019531 3.601563.890625 5.179688l91.566406 165.6875-49.851562 78.613281c-.90625-.042969-1.796875-.167969-2.714844-.167969-39.703125 0-72 39.476563-72 88 0 2.242188.140625 4.445313.277344 6.648438-.128906.425781-.222656.863281-.277344 1.304687.355469 6.46875-2.054688 12.789063-6.632812 17.375-4.578126 4.589844-10.894532 7.011719-17.367188 6.671875-4.417969 0-8 3.582032-8 8 0 4.417969 3.582031 8 8 8 11.441406.589844 22.53125-4.070312 30.109375-12.660156 11.164063 30.964844 36.476563 52.660156 65.890625 52.660156 39.703125 0 72-39.476562 72-88 .109375-17.527344-4.324219-34.78125-12.871094-50.082031l28.875-52.246094 28.871094 52.246094c-8.546875 15.300781-12.984375 32.554687-12.875 50.082031 0 48.523438 32.296875 88 72 88s72-39.476562 72-88c0-48.523437-32.296875-88-72-88zm-199.648438-249.429687 4.101563-24.617188 98.074219 154.664063-16.195313 25.539062zm23.648438 409.429687c-30.875 0-56-32.296875-56-72s25.125-72 56-72 56 32.296875 56 72-25.125 72-56 72zm19.609375-156.597656 175.9375-277.449219 4.101563 24.617188-150.828126 272.933593c-7.84375-9.105468-17.90625-16.03125-29.210937-20.101562zm77.53125-34.265625 17.476563-31.621094 41.777343 65.886719c-11.304687 4.070312-21.367187 10.996094-29.210937 20.101562zm78.859375 190.863281c-30.875 0-56-32.296875-56-72s25.125-72 56-72 56 32.296875 56 72-25.125 72-56 72zm0 0"/><path d="m296 336.003906c-21.679688 0-40 25.648438-40 56 0 30.351563 18.320312 56 40 56s40-25.648437 40-56c0-30.351562-18.320312-56-40-56zm0 96c-11.101562 0-24-17.476562-24-40 0-22.523437 12.898438-40 24-40s24 17.476563 24 40c0 22.523438-12.898438 40-24 40zm0 0"/><path d="m208 216.003906c-2.121094-.003906-4.15625.839844-5.65625 2.339844s-2.34375 3.535156-2.34375 5.660156v8c0 4.417969 3.582031 8 8 8s8-3.582031 8-8v-8c.003906-2.125-.839844-4.160156-2.339844-5.660156s-3.535156-2.34375-5.660156-2.339844zm0 0"/><path d="m32 72.003906c0 4.417969 3.582031 8 8 8s8-3.582031 8-8c.015625-13.25 10.753906-23.988281 24-24 4.417969 0 8-3.582031 8-8 0-4.417968-3.582031-8-8-8-13.246094-.015625-23.984375-10.753906-24-24 0-4.417968-3.582031-7.99999975-8-7.99999975s-8 3.58203175-8 7.99999975c-.011719 13.246094-10.75 23.984375-24 24-4.417969 0-8 3.582032-8 8 0 4.417969 3.582031 8 8 8 13.25.011719 23.988281 10.75 24 24zm8-40.023437c2.285156 3.039062 4.984375 5.738281 8.023438 8.023437-3.039063 2.28125-5.738282 4.980469-8.023438 8.023438-2.28125-3.042969-4.980469-5.742188-8.023438-8.023438 3.042969-2.285156 5.742188-4.984375 8.023438-8.023437zm0 0"/></svg>